<?xml version="1.0" encoding="UTF-8"?>
<svg viewBox="0 0 81 68" xmlns="http://www.w3.org/2000/svg">
 <path d="m18.59 54.3c-1.4531-3.7867-0.60678-9.0577 1.7887-11.141 1.4254-1.2394 2.6756-3.7403 3.087-6.1751 0.38025-2.2506 1.1443-4.372 1.6979-4.7142s-0.94806-1.7178-3.337-3.057c-4.5672-2.5603-6.8436-4.8767-6.8436-6.9641 0-0.70528 3.1408 0.68598 7.204 3.1911 7.0718 4.3601 7.3632 4.4416 15.875 4.4416h8.671l0.625 3.125c0.34375 1.7188 0.625 4.6833 0.625 6.5879v3.4629l-4.25-0.64143c-2.3375-0.35278-5.4445-0.86865-6.9045-1.1464-2.1566-0.41025-3.1568 0.15355-5.3325 3.006-2.7897 3.6575-2.7818 6.3081 0.0257 8.6381 2.14 1.7761 1.7865 2.9679-0.88044 2.9679-1.8521 0-2.5839-0.80837-3.5-3.866-0.63706-2.1263-1.1583-4.8473-1.1583-6.0467 0-2.1372-0.04922-2.1448-2.4686-0.38398-2.8097 2.0449-3.4544 7.0053-1.0314 7.9351 2.3252 0.89226 1.7696 2.3616-0.89301 2.3616-1.3162 0-2.6662-0.7118-3-1.5818zm31.235 0.83179c-0.0871-0.4125-0.19957-6.042-0.25-12.51-0.10084-12.932-0.40476-12.541 6.4057-8.2416 3.0738 1.9404 3.8824 2.9415 3.119 3.8614-1.4552 1.7534 1.4513 12.682 3.9364 14.801 2.665 2.2723 2.4432 3.0302-0.77733 2.6561-2.262-0.2627-3.0314-1.1653-4.5322-5.3164-0.99424-2.75-2.0692-5.675-2.3889-6.5-0.39791-1.027-0.99437-0.39643-1.8917 2-1.8222 4.8666-1.7489 7.0622 0.28731 8.608 1.5909 1.2077 1.5 1.3313-1 1.3602-1.5125 0.01749-2.8212-0.3057-2.9083-0.7182zm6.3948-22.828c-2.8802-1.7236-4.0158-2.9692-3.5-3.8391 1.5687-2.646 5.8581-7.2131 7.2852-7.7568 2.1236-0.80903 5.9783 0.85089 5.9783 2.5744 0 0.80566 0.87703 1.7432 1.949 2.0834 2.8049 0.89024 1.405 3.5162-1.8745 3.5162-2.024 0-3.0746 0.75734-4.143 2.9866l-1.4314 2.9866-4.2635-2.5513zm-11.511-7.6719c-4.4836-7.7316-5.7288-10.63-4.8108-11.197 0.72052-0.44531 9.0854 13.387 9.0854 15.024 0 1.7013-2.2227-0.28854-4.2746-3.8268z"/>
</svg>
